<!-- Generated by IcoMoon.io -->
<svg version="1.1" xmlns="http://www.w3.org/2000/svg" width="16" height="16" viewBox="0 0 16 16">
<title>puzzle2</title>
<path d="M14.543 16h-2.452c-0.772 0-1.115-0.309-1.267-0.569-0.23-0.394-0.17-0.906 0.178-1.524 0.379-0.672 0.506-1.212 0.348-1.483-0.148-0.253-0.622-0.393-1.335-0.393s-1.188 0.139-1.335 0.393c-0.158 0.271-0.031 0.811 0.348 1.483 0.348 0.617 0.408 1.13 0.178 1.524-0.152 0.26-0.494 0.569-1.267 0.569h-2.477c-0.804 0-1.457-0.656-1.457-1.462v-2.161c0-0.087 0.003-0.171 0.005-0.251 0.001-0.020 0.001-0.041 0.002-0.063-0.049 0.024-0.108 0.055-0.176 0.094-0.438 0.249-1.369 0.546-2.029 0.546-0.544 0-0.997-0.206-1.31-0.595-0.335-0.415-0.497-1.009-0.497-1.815s0.163-1.4 0.497-1.815c0.313-0.389 0.766-0.595 1.31-0.595 0.66 0 1.591 0.297 2.029 0.546 0.068 0.039 0.126 0.069 0.176 0.094-0.001-0.022-0.001-0.044-0.002-0.064-0.003-0.080-0.005-0.164-0.005-0.251l-0.013-2.74c0-0.808 0.654-1.464 1.457-1.464h2.481c0.073-0 0.261-0 0.383-0.018-0.021-0.071-0.067-0.19-0.169-0.37-0.583-1.033-0.698-2.117-0.341-2.729 0.344-0.59 1.084-0.889 2.199-0.889s1.855 0.299 2.199 0.889c0.357 0.611 0.242 1.695-0.341 2.729-0.102 0.18-0.148 0.299-0.169 0.37 0.122 0.018 0.31 0.018 0.383 0.018h2.455c0.804 0 1.457 0.656 1.457 1.461l0.012 9.071c0 0.807-0.654 1.462-1.457 1.462zM11.688 14.926c0.029 0.023 0.147 0.074 0.402 0.074h2.452c0.252 0 0.457-0.207 0.457-0.462l-0.012-9.071c0-0.255-0.205-0.462-0.457-0.462h-2.456c-0.401-0.001-1.005-0.002-1.284-0.481-0.268-0.46-0.014-1.019 0.2-1.399 0.379-0.672 0.506-1.462 0.348-1.733-0.148-0.253-0.622-0.393-1.336-0.393s-1.188 0.139-1.335 0.393c-0.158 0.271-0.031 1.061 0.348 1.733 0.214 0.38 0.468 0.938 0.2 1.399-0.279 0.479-0.884 0.48-1.284 0.481h-2.482c-0.252 0-0.457 0.207-0.457 0.461l0.013 2.74c0 0.073 0.003 0.148 0.005 0.22 0.012 0.35 0.024 0.712-0.229 0.974-0.095 0.099-0.265 0.216-0.531 0.216-0 0-0 0-0 0-0.241 0-0.521-0.098-0.907-0.318-0.464-0.264-1.195-0.415-1.534-0.415-0.221 0-0.807 0-0.807 1.41s0.587 1.41 0.807 1.41c0.34 0 1.071-0.151 1.534-0.415 0.386-0.22 0.666-0.318 0.907-0.318 0.266 0 0.436 0.118 0.531 0.216 0.253 0.261 0.241 0.623 0.229 0.974-0.002 0.072-0.005 0.147-0.005 0.218v2.161c0 0.254 0.205 0.462 0.457 0.462h2.477c0.255 0 0.373-0.051 0.402-0.074 0.004-0.028 0.014-0.176-0.185-0.527-0.583-1.033-0.698-1.867-0.341-2.479 0.344-0.59 1.084-0.889 2.199-0.889s1.855 0.299 2.199 0.889c0.357 0.611 0.242 1.445-0.341 2.479-0.198 0.351-0.189 0.499-0.185 0.527z"></path>
</svg>
