<!-- Generated by IcoMoon.io -->
<svg version="1.1" xmlns="http://www.w3.org/2000/svg" width="32" height="32" viewBox="0 0 32 32">
<title>hanger</title>
<path d="M29.541 27.159l-13.541-8.705v-0.989c1.22-0.705 2-2.021 2-3.465 0-2.206-1.794-4-4-4-1.692 0-3.208 1.072-3.772 2.666-0.184 0.521 0.089 1.092 0.61 1.276s1.092-0.089 1.276-0.61c0.282-0.797 1.040-1.333 1.886-1.333 1.103 0 2 0.897 2 2 0 0.846-0.536 1.605-1.333 1.887-0.4 0.141-0.667 0.519-0.667 0.943l-0 1.625-13.541 8.705c-0.286 0.184-0.459 0.501-0.459 0.841v1c0 1.654 1.346 3 3 3h24c1.654 0 3-1.346 3-3v-1c0-0.34-0.173-0.657-0.459-0.841zM28 29c0 0.551-0.449 1-1 1h-24c-0.551 0-1-0.449-1-1v-0.454l13-8.357 13 8.357v0.454z"></path>
</svg>
