<!-- Generated by IcoMoon.io -->
<svg version="1.1" xmlns="http://www.w3.org/2000/svg" width="64" height="64" viewBox="0 0 64 64">
<title>anchor</title>
<path d="M56 36v8.262c-5.033 5.14-12.065 10.103-20 11.407v-23.669h12v-4l-12-4.684c4.66-1.648 8-6.091 8-11.316 0-6.628-5.373-12-12-12s-12 5.372-12 12c0 5.225 3.339 9.669 8 11.316v0.001l-12 4.683v4h12v23.669c-7.936-1.304-14.968-6.266-20-11.407v-8.262h-8v4c0 8 16 24 32 24s32-16 32-24v-4h-8zM36 12c0 2.209-1.791 4-4 4s-4-1.791-4-4 1.791-4 4-4c2.209 0 4 1.791 4 4z"></path>
</svg>
