<!-- Generated by IcoMoon.io -->
<svg version="1.1" xmlns="http://www.w3.org/2000/svg" width="64" height="64" viewBox="0 0 64 64">
<title>at-sign</title>
<path d="M54.627 9.373c-6.044-6.044-14.080-9.373-22.628-9.373s-16.583 3.329-22.628 9.373c-6.044 6.044-9.373 14.080-9.373 22.627s3.329 16.583 9.373 22.627c6.044 6.044 14.080 9.373 22.628 9.373 4.798 0 9.412-1.037 13.717-3.082 1.995-0.948 2.844-3.334 1.897-5.33s-3.334-2.844-5.33-1.897c-3.223 1.531-6.683 2.308-10.284 2.308-13.234 0-24-10.766-24-24s10.766-24 24-24 24 10.766 24 24v4c0 2.206-1.794 4-4 4s-4-1.794-4-4v-16c0-2.209-1.791-4-4-4-1.624 0-3.021 0.968-3.648 2.358-2.433-1.495-5.294-2.358-8.352-2.358-8.822 0-16 7.178-16 16s7.178 16 16 16c4.182 0 7.993-1.613 10.847-4.249 2.203 2.598 5.489 4.249 9.153 4.249 6.617 0 12-5.383 12-12v-4c0-8.547-3.329-16.583-9.373-22.628zM32 40c-4.411 0-8-3.589-8-8s3.589-8 8-8c4.411 0 8 3.589 8 8s-3.589 8-8 8z"></path>
</svg>
