<!-- Generated by IcoMoon.io -->
<svg version="1.1" xmlns="http://www.w3.org/2000/svg" width="20" height="16" viewBox="0 0 20 16">
<title>hammer-wrench</title>
<path d="M7.696 11.009l2.295 2.295-1.823 2.341c-0.334 0.437-0.926 0.476-1.315 0.087l-1.586-1.586c-0.389-0.389-0.35-0.98 0.087-1.315l2.341-1.823zM19.899 4.101l-2.399 2.399-3-3 2.399-2.399c-0.289-0.066-0.59-0.101-0.899-0.101-2.209 0-4 1.791-4 4 0 0.797 0.233 1.539 0.635 2.163l-2.233 1.739-3.402-3.402 4.5-4.5h-5l-2.22 2.22-0.22-0.22h-1.061v1.061l0.22 0.22-3.22 3.22 2.5 2.5 3-3 9 9 1.5-1.5-3.902-3.902 1.739-2.233c0.624 0.402 1.366 0.635 2.163 0.635 2.209 0 4-1.791 4-4 0-0.309-0.035-0.61-0.101-0.899z"></path>
</svg>
