<!-- Generated by IcoMoon.io -->
<svg version="1.1" xmlns="http://www.w3.org/2000/svg" width="80" height="64" viewBox="0 0 80 64">
<title>hammer-wrench</title>
<path d="M30.785 44.035l9.181 9.181-7.292 9.364c-1.336 1.748-3.703 1.905-5.258 0.349l-6.343-6.343c-1.556-1.556-1.398-3.922 0.349-5.258l9.364-7.292zM79.594 16.406l-9.594 9.594-12-12 9.594-9.594c-1.156-0.265-2.359-0.406-3.594-0.406-8.837 0-16 7.163-16 16 0 3.187 0.932 6.157 2.539 8.651l-8.932 6.956-13.607-13.607 18-18h-20l-8.879 8.879-0.879-0.879h-4.243v4.243l0.879 0.879-12.879 12.879 10 10 12-12 36 36 6-6-15.607-15.607 6.956-8.932c2.494 1.606 5.464 2.539 8.651 2.539 8.837 0 16-7.163 16-16 0-1.236-0.14-2.439-0.406-3.594z"></path>
</svg>
