<!-- Generated by IcoMoon.io -->
<svg version="1.1" xmlns="http://www.w3.org/2000/svg" width="64" height="64" viewBox="0 0 64 64">
<title>hanger</title>
<path d="M59.082 54.318l-27.082-17.41v-1.978c2.44-1.41 4-4.042 4-6.93 0-4.411-3.589-8-8-8-3.385 0-6.416 2.143-7.544 5.333-0.368 1.041 0.177 2.184 1.219 2.552s2.184-0.178 2.552-1.219c0.564-1.595 2.080-2.666 3.773-2.666 2.206 0 4 1.794 4 4 0 1.693-1.072 3.209-2.666 3.773-0.799 0.282-1.333 1.038-1.333 1.886l-0 3.249-27.081 17.41c-0.573 0.368-0.918 1.002-0.918 1.682v2c0 3.309 2.692 6 6 6h48c3.309 0 6-2.691 6-6v-2c0-0.681-0.346-1.314-0.918-1.682zM56 58c0 1.103-0.897 2-2 2h-48c-1.103 0-2-0.897-2-2v-0.908l26-16.714 26 16.714v0.908z"></path>
</svg>
