<!-- Generated by IcoMoon.io -->
<svg version="1.1" xmlns="http://www.w3.org/2000/svg" width="16" height="16" viewBox="0 0 16 16">
<title>hanger</title>
<path d="M14.77 13.579l-6.77-4.352v-0.495c0.61-0.353 1-1.010 1-1.732 0-1.103-0.897-2-2-2-0.846 0-1.604 0.536-1.886 1.333-0.092 0.26 0.044 0.546 0.305 0.638s0.546-0.044 0.638-0.305c0.141-0.399 0.52-0.667 0.943-0.667 0.551 0 1 0.449 1 1 0 0.423-0.268 0.802-0.667 0.943-0.2 0.071-0.333 0.259-0.333 0.471l-0 0.812-6.77 4.352c-0.143 0.092-0.23 0.25-0.23 0.421v0.5c0 0.827 0.673 1.5 1.5 1.5h12c0.827 0 1.5-0.673 1.5-1.5v-0.5c0-0.17-0.086-0.329-0.23-0.421zM14 14.5c0 0.276-0.224 0.5-0.5 0.5h-12c-0.276 0-0.5-0.224-0.5-0.5v-0.227l6.5-4.179 6.5 4.179v0.227z"></path>
</svg>
