<!-- Generated by IcoMoon.io -->
<svg version="1.1" xmlns="http://www.w3.org/2000/svg" width="16" height="16" viewBox="0 0 16 16">
<title>heart4</title>
<path d="M16 5.596c0-2.538-2.058-4.596-4.596-4.596-1.349 0-2.563 0.582-3.404 1.508-0.841-0.926-2.054-1.508-3.404-1.508-2.538 0-4.596 2.058-4.596 4.596 0 1.349 0.582 2.563 1.508 3.404h-0.008l5 5c0.5 0.5 1 1 1.5 1s1-0.5 1.5-1l4.992-5c0.926-0.841 1.508-2.054 1.508-3.404zM13.148 7.519l-5.062 5.067c-0.026 0.026-0.055 0.055-0.086 0.086-0.031-0.030-0.060-0.059-0.086-0.086l-5.062-5.066c-0.549-0.499-0.852-1.182-0.852-1.923 0-1.432 1.165-2.596 2.596-2.596 0.741 0 1.424 0.303 1.923 0.852l1.481 1.631 1.481-1.631c0.499-0.55 1.182-0.852 1.923-0.852 1.432 0 2.596 1.165 2.596 2.596 0 0.741-0.303 1.424-0.852 1.923z"></path>
</svg>
