<!-- Generated by IcoMoon.io -->
<svg version="1.1" xmlns="http://www.w3.org/2000/svg" width="64" height="64" viewBox="0 0 64 64">
<title>image-compare</title>
<path d="M52 22c0 3.314-2.686 6-6 6s-6-2.686-6-6c0-3.314 2.686-6 6-6s6 2.686 6 6z"></path>
<path d="M0 12v40c0 2.2 1.8 4 4 4h24v-4h-23.993c-0.003-0.002-0.005-0.005-0.007-0.007v-39.986c0.002-0.002 0.005-0.005 0.007-0.007h23.993v-4h-24c-2.2 0-4 1.8-4 4z"></path>
<path d="M60 8h-24v-8h-4v64h4v-8h24c2.2 0 4-1.8 4-4v-40c0-2.2-1.8-4-4-4zM60 51.993c-0.002 0.002-0.005 0.005-0.007 0.007h-23.993v-4h20v-20l-14 12h-4l-2-2.5v-25.5h23.993c0.003 0.002 0.005 0.005 0.007 0.007v39.986z"></path>
<path d="M8 44v4h20v-20.5l-6-7.5z"></path>
</svg>
