<!-- Generated by IcoMoon.io -->
<svg version="1.1" xmlns="http://www.w3.org/2000/svg" width="64" height="64" viewBox="0 0 64 64">
<title>puzzle</title>
<path d="M59.896 16.016h-10.528c-2.714-0.004-5.419-0.188-2.782-4.841 2.642-4.662 4.507-11.19-6.1-11.19s-8.742 6.528-6.1 11.19c2.637 4.653-0.067 4.837-2.782 4.841h-11.492c-2.258 0-4.104 1.847-4.104 4.104v12.774c0 2.719 0.738 5.439-3.924 2.797s-12.084-4.507-12.084 6.1c0 10.607 7.421 8.742 12.084 6.1s3.924 0.078 3.924 2.797v9.223c0 2.258 1.847 4.104 4.104 4.104h11.476c2.72 0 5.44-1.088 2.798-5.751s-4.508-11.19 6.1-11.19 8.742 6.528 6.1 11.19c-2.642 4.662 0.078 5.751 2.798 5.751h10.512c2.258 0 4.105-1.847 4.105-4.104v-39.791c0-2.257-1.847-4.104-4.105-4.104z"></path>
</svg>
