<!-- Generated by IcoMoon.io -->
<svg version="1.1" xmlns="http://www.w3.org/2000/svg" width="16" height="16" viewBox="0 0 16 16">
<title>puzzle</title>
<path d="M14.974 4.004h-2.632c-0.679-0.001-1.355-0.047-0.695-1.21 0.661-1.166 1.127-2.798-1.525-2.798s-2.185 1.632-1.525 2.798c0.659 1.163-0.017 1.209-0.695 1.21h-2.873c-0.564 0-1.026 0.462-1.026 1.026v3.193c0 0.68 0.184 1.36-0.981 0.699s-3.021-1.127-3.021 1.525c0 2.652 1.855 2.185 3.021 1.525s0.981 0.019 0.981 0.699v2.306c0 0.564 0.462 1.026 1.026 1.026h2.869c0.68 0 1.36-0.272 0.699-1.438s-1.127-2.797 1.525-2.797 2.186 1.632 1.525 2.797c-0.66 1.166 0.019 1.438 0.699 1.438h2.628c0.564 0 1.026-0.462 1.026-1.026v-9.948c0-0.564-0.462-1.026-1.026-1.026z"></path>
</svg>
