<!-- Generated by IcoMoon.io -->
<svg version="1.1" xmlns="http://www.w3.org/2000/svg" width="64" height="64" viewBox="0 0 64 64">
<title>puzzle2</title>
<path d="M58.17 64h-9.809c-3.088 0-4.46-1.238-5.066-2.276-0.92-1.575-0.68-3.626 0.714-6.095 1.517-2.687 2.024-4.849 1.392-5.931-0.592-1.013-2.489-1.571-5.342-1.571s-4.75 0.558-5.342 1.571c-0.632 1.082-0.124 3.244 1.392 5.931 1.393 2.469 1.634 4.52 0.714 6.095-0.606 1.038-1.977 2.276-5.066 2.276h-9.909c-3.215 0-5.83-2.622-5.83-5.846v-8.642c0-0.349 0.011-0.682 0.022-1.005 0.003-0.079 0.006-0.164 0.008-0.254-0.198 0.097-0.43 0.22-0.703 0.375-1.751 0.997-5.474 2.185-8.116 2.185-2.175 0-3.986-0.822-5.24-2.379-1.339-1.662-1.99-4.037-1.99-7.26s0.651-5.599 1.99-7.261c1.254-1.556 3.066-2.378 5.24-2.378 2.641 0 6.364 1.188 8.115 2.185 0.272 0.155 0.505 0.278 0.702 0.375-0.003-0.089-0.006-0.175-0.008-0.254-0.011-0.322-0.022-0.655-0.022-1.004l-0.050-10.96c0-3.233 2.615-5.855 5.83-5.855h9.924c0.293-0 1.043-0.002 1.531-0.073-0.084-0.286-0.27-0.758-0.677-1.48-2.332-4.133-2.791-8.468-1.363-10.914 1.377-2.358 4.337-3.554 8.796-3.554s7.419 1.196 8.797 3.554c1.428 2.446 0.97 6.781-1.363 10.914-0.407 0.722-0.593 1.194-0.677 1.48 0.488 0.072 1.239 0.073 1.534 0.073h9.821c3.215 0 5.83 2.622 5.83 5.846l0.050 36.283c0 3.226-2.615 5.849-5.83 5.849zM46.753 59.703c0.117 0.091 0.589 0.297 1.608 0.297h9.809c1.009 0 1.83-0.828 1.83-1.846l-0.050-36.284c0-1.020-0.821-1.849-1.83-1.849h-9.824c-1.603-0.003-4.020-0.006-5.138-1.924-1.073-1.841-0.057-4.075 0.801-5.595 1.517-2.687 2.024-5.849 1.392-6.931-0.592-1.013-2.489-1.571-5.342-1.571s-4.75 0.558-5.342 1.571c-0.632 1.082-0.124 4.244 1.392 6.932 0.858 1.52 1.874 3.754 0.801 5.595-1.118 1.918-3.535 1.922-5.135 1.924h-9.927c-1.009 0-1.83 0.828-1.83 1.846l0.050 10.96c0 0.291 0.010 0.59 0.020 0.879 0.047 1.401 0.095 2.849-0.916 3.895-0.381 0.394-1.060 0.865-2.125 0.865-0 0-0 0-0.001 0-0.966 0-2.085-0.392-3.629-1.27-1.855-1.056-4.779-1.661-6.137-1.661-0.883 0-3.23 0-3.23 5.639s2.346 5.639 3.23 5.639c1.358 0 4.282-0.605 6.137-1.661 1.544-0.879 2.663-1.271 3.63-1.271 1.065 0 1.744 0.47 2.125 0.865 1.011 1.045 0.962 2.494 0.916 3.895-0.010 0.289-0.020 0.589-0.020 0.871v8.642c0 1.018 0.821 1.846 1.83 1.846h9.909c1.019 0 1.492-0.205 1.608-0.297 0.017-0.111 0.054-0.703-0.739-2.109-2.332-4.133-2.791-7.468-1.363-9.914 1.377-2.358 4.337-3.554 8.796-3.554s7.419 1.196 8.796 3.554c1.428 2.446 0.97 5.781-1.363 9.914-0.793 1.406-0.756 1.998-0.739 2.109z"></path>
</svg>
