<!-- Generated by IcoMoon.io -->
<svg version="1.1" xmlns="http://www.w3.org/2000/svg" width="16" height="16" viewBox="0 0 16 16">
<title>question6</title>
<path d="M8 13c-0.552 0-1-0.448-1-1v-1.027c0-1.41 1.124-2.477 2.212-3.509 0.879-0.834 1.788-1.697 1.788-2.464 0-1.493-1.082-3-3.5-3-1.787 0-3.283 1.337-3.479 3.11-0.061 0.549-0.555 0.945-1.104 0.884s-0.945-0.555-0.884-1.104c0.148-1.338 0.782-2.572 1.785-3.477 1.011-0.911 2.319-1.413 3.681-1.413 1.475 0 2.834 0.463 3.828 1.305 1.078 0.913 1.672 2.225 1.672 3.695 0 1.626-1.281 2.842-2.411 3.915-0.745 0.707-1.589 1.508-1.589 2.058l0 1.027c0 0.552-0.448 1-1 1z"></path>
<path d="M9 15c0 0.552-0.448 1-1 1s-1-0.448-1-1c0-0.552 0.448-1 1-1s1 0.448 1 1z"></path>
</svg>
