<!-- Generated by IcoMoon.io -->
<svg version="1.1" xmlns="http://www.w3.org/2000/svg" width="64" height="64" viewBox="0 0 64 64">
<title>question6</title>
<path d="M32 52c-2.209 0-4-1.791-4-4v-4.11c0-5.639 4.498-9.907 8.847-14.035 3.516-3.337 7.153-6.788 7.153-9.856 0-5.973-4.329-12-14-12-7.148 0-13.13 5.348-13.914 12.44-0.243 2.196-2.218 3.779-4.415 3.536-2.196-0.243-3.779-2.22-3.536-4.415 0.591-5.35 3.128-10.289 7.142-13.907 4.045-3.646 9.274-5.654 14.724-5.654 5.898 0 11.336 1.853 15.312 5.219 4.313 3.651 6.688 8.9 6.688 14.781 0 6.505-5.124 11.368-9.646 15.659-2.978 2.826-6.354 6.030-6.354 8.232l0 4.11c0 2.209-1.791 4-4 4z"></path>
<path d="M36 60c0 2.209-1.791 4-4 4s-4-1.791-4-4c0-2.209 1.791-4 4-4s4 1.791 4 4z"></path>
</svg>
