<!-- Generated by IcoMoon.io -->
<svg version="1.1" xmlns="http://www.w3.org/2000/svg" width="16" height="16" viewBox="0 0 16 16">
<title>stack-check</title>
<path d="M5 1v1.155l-2.619 0.368 0.17 1.211-2.551 0.732 3.308 11.535 10.189-2.921 0.558-0.079h1.945v-12h-11zM3.929 14.879l-2.808-9.793 1.558-0.447 1.373 9.766 2.997-0.421-3.119 0.894zM4.822 13.382l-1.418-10.088 1.595-0.224v9.93h2.543l-2.721 0.382zM6 12v-10h9v2.5l-0.707-0.707-4.293 3.793-2.293-1.793-0.914 0.914 3.207 3.707 5-5.48v7.066h-9z"></path>
</svg>
