<!-- Generated by IcoMoon.io -->
<svg version="1.1" xmlns="http://www.w3.org/2000/svg" width="16" height="16" viewBox="0 0 16 16">
<title>stack-picture</title>
<path d="M5 1v1.155l-2.619 0.368 0.17 1.211-2.551 0.732 3.308 11.535 10.189-2.921 0.558-0.079h1.945v-12h-11zM3.929 14.879l-2.808-9.793 1.558-0.447 1.373 9.766 2.997-0.421-3.119 0.894zM4.822 13.382l-1.418-10.088 1.595-0.224v9.93h2.543l-2.721 0.382zM15 12h-9v-10h9v10zM10 11h-3l1-4h1l2.333 2.333 0.667-1.333h1l1 3zM11 5c0-0.552 0.448-1 1-1s1 0.448 1 1c0 0.552-0.448 1-1 1s-1-0.448-1-1z"></path>
</svg>
