<!-- Generated by IcoMoon.io -->
<svg version="1.1" xmlns="http://www.w3.org/2000/svg" width="64" height="64" viewBox="0 0 64 64">
<title>stack-check</title>
<path d="M20 4v4.619l-10.476 1.472 0.681 4.842-10.204 2.926 13.231 46.141 40.754-11.686 2.234-0.314h7.781v-48h-44zM15.716 59.516l-11.232-39.171 6.23-1.787 5.49 39.065 11.987-1.685-12.476 3.578zM19.29 53.529l-5.671-40.353 6.382-0.897v39.721h10.172l-10.882 1.529zM24 48v-40h36v10l-2.828-2.828-17.172 15.171-9.172-7.172-3.657 3.657 12.828 14.828 20-21.921v28.264h-36z"></path>
</svg>
