<!-- Generated by IcoMoon.io -->
<svg version="1.1" xmlns="http://www.w3.org/2000/svg" width="16" height="16" viewBox="0 0 16 16">
<title>warning2</title>
<path d="M15.781 14.309v0l-6.829-13.611c-0.262-0.465-0.606-0.698-0.951-0.698s-0.69 0.233-0.951 0.698l-6.829 13.611c-0.523 0.93-0.078 1.691 0.989 1.691h13.583c1.067 0 1.512-0.761 0.989-1.691zM8 14c-0.552 0-1-0.448-1-1s0.448-1 1-1c0.552 0 1 0.448 1 1s-0.448 1-1 1zM9 10c0 0.552-0.448 1-1 1s-1-0.448-1-1v-3c0-0.552 0.448-1 1-1s1 0.448 1 1v3z"></path>
</svg>
