<!-- Generated by IcoMoon.io -->
<svg version="1.1" xmlns="http://www.w3.org/2000/svg" width="64" height="64" viewBox="0 0 64 64">
<title>warning2</title>
<path d="M63.122 57.235v0l-27.317-54.444c-1.046-1.86-2.426-2.791-3.805-2.791s-2.759 0.93-3.805 2.791l-27.317 54.444c-2.093 3.721-0.313 6.765 3.957 6.765h54.332c4.269 0 6.050-3.044 3.956-6.765zM32 56c-2.209 0-4-1.791-4-4s1.791-4 4-4c2.209 0 4 1.791 4 4s-1.791 4-4 4zM36 40c0 2.209-1.791 4-4 4s-4-1.791-4-4v-12c0-2.209 1.791-4 4-4s4 1.791 4 4v12z"></path>
</svg>
