<svg aria-hidden="true" style="position: absolute; width: 0; height: 0; overflow: hidden;" version="1.1" xmlns="http://www.w3.org/2000/svg" xmlns:xlink="http://www.w3.org/1999/xlink">
<defs>
<symbol id="icon-heart3" viewBox="0 0 16 16">
<path d="M16 5.596c0 1.349-0.582 2.563-1.508 3.404h0.008l-5 5c-0.5 0.5-1 1-1.5 1s-1-0.5-1.5-1l-4.992-5c-0.926-0.841-1.508-2.054-1.508-3.404 0-2.538 2.058-4.596 4.596-4.596 1.349 0 2.563 0.582 3.404 1.508 0.841-0.926 2.054-1.508 3.404-1.508 2.538 0 4.596 2.058 4.596 4.596z"></path>
</symbol>
<symbol id="icon-heart4" viewBox="0 0 16 16">
<path d="M16 5.596c0-2.538-2.058-4.596-4.596-4.596-1.349 0-2.563 0.582-3.404 1.508-0.841-0.926-2.054-1.508-3.404-1.508-2.538 0-4.596 2.058-4.596 4.596 0 1.349 0.582 2.563 1.508 3.404h-0.008l5 5c0.5 0.5 1 1 1.5 1s1-0.5 1.5-1l4.992-5c0.926-0.841 1.508-2.054 1.508-3.404zM13.148 7.519l-5.062 5.067c-0.026 0.026-0.055 0.055-0.086 0.086-0.031-0.030-0.060-0.059-0.086-0.086l-5.062-5.066c-0.549-0.499-0.852-1.182-0.852-1.923 0-1.432 1.165-2.596 2.596-2.596 0.741 0 1.424 0.303 1.923 0.852l1.481 1.631 1.481-1.631c0.499-0.55 1.182-0.852 1.923-0.852 1.432 0 2.596 1.165 2.596 2.596 0 0.741-0.303 1.424-0.852 1.923z"></path>
</symbol>
<symbol id="icon-image-compare" viewBox="0 0 16 16">
<path d="M13 5.5c0 0.828-0.672 1.5-1.5 1.5s-1.5-0.672-1.5-1.5c0-0.828 0.672-1.5 1.5-1.5s1.5 0.672 1.5 1.5z"></path>
<path d="M0 3v10c0 0.55 0.45 1 1 1h6v-1h-5.998c-0.001-0.001-0.001-0.001-0.002-0.002v-9.996c0.001-0.001 0.001-0.001 0.002-0.002h5.998v-1h-6c-0.55 0-1 0.45-1 1z"></path>
<path d="M15 2h-6v-2h-1v16h1v-2h6c0.55 0 1-0.45 1-1v-10c0-0.55-0.45-1-1-1zM15 12.998c-0.001 0.001-0.001 0.001-0.002 0.002h-5.998v-1h5v-5l-3.5 3h-1l-0.5-0.625v-6.375h5.998c0.001 0.001 0.001 0.001 0.002 0.002v9.996z"></path>
<path d="M2 11v1h5v-5.125l-1.5-1.875z"></path>
</symbol>
<symbol id="icon-book3" viewBox="0 0 16 16">
<path d="M14 2v13h-10.5c-0.829 0-1.5-0.672-1.5-1.5s0.671-1.5 1.5-1.5h9.5v-12h-10c-1.1 0-2 0.9-2 2v12c0 1.1 0.9 2 2 2h12v-14h-1z"></path>
<path d="M3.501 13v0c-0 0-0.001 0-0.001 0-0.276 0-0.5 0.224-0.5 0.5s0.224 0.5 0.5 0.5c0 0 0.001-0 0.001-0v0h9.498v-1h-9.498z"></path>
</symbol>
<symbol id="icon-lifebuoy" viewBox="0 0 16 16">
<path d="M8 0c-4.418 0-8 3.582-8 8s3.582 8 8 8 8-3.582 8-8-3.582-8-8-8zM5 8c0-1.657 1.343-3 3-3s3 1.343 3 3-1.343 3-3 3-3-1.343-3-3zM14.468 10.679v0l-2.772-1.148c0.196-0.472 0.304-0.989 0.304-1.531s-0.108-1.059-0.304-1.531l2.772-1.148c0.342 0.825 0.532 1.73 0.532 2.679s-0.189 1.854-0.532 2.679v0zM10.679 1.532v0 0l-1.148 2.772c-0.472-0.196-0.989-0.304-1.531-0.304s-1.059 0.108-1.531 0.304l-1.148-2.772c0.825-0.342 1.73-0.532 2.679-0.532s1.854 0.189 2.679 0.532zM1.532 5.321l2.772 1.148c-0.196 0.472-0.304 0.989-0.304 1.531s0.108 1.059 0.304 1.531l-2.772 1.148c-0.342-0.825-0.532-1.73-0.532-2.679s0.189-1.854 0.532-2.679zM5.321 14.468l1.148-2.772c0.472 0.196 0.989 0.304 1.531 0.304s1.059-0.108 1.531-0.304l1.148 2.772c-0.825 0.342-1.73 0.532-2.679 0.532s-1.854-0.189-2.679-0.532z"></path>
</symbol>
<symbol id="icon-at-sign" viewBox="0 0 16 16">
<path d="M13.657 2.343c-1.511-1.511-3.52-2.343-5.657-2.343s-4.146 0.832-5.657 2.343c-1.511 1.511-2.343 3.52-2.343 5.657s0.832 4.146 2.343 5.657c1.511 1.511 3.52 2.343 5.657 2.343 1.199 0 2.353-0.259 3.429-0.77 0.499-0.237 0.711-0.834 0.474-1.332s-0.834-0.711-1.332-0.474c-0.806 0.383-1.671 0.577-2.571 0.577-3.308 0-6-2.692-6-6s2.692-6 6-6 6 2.692 6 6v1c0 0.551-0.449 1-1 1s-1-0.449-1-1v-4c0-0.552-0.448-1-1-1-0.406 0-0.755 0.242-0.912 0.59-0.608-0.374-1.323-0.59-2.088-0.59-2.206 0-4 1.794-4 4s1.794 4 4 4c1.045 0 1.998-0.403 2.712-1.062 0.551 0.649 1.372 1.062 2.288 1.062 1.654 0 3-1.346 3-3v-1c0-2.137-0.832-4.146-2.343-5.657zM8 10c-1.103 0-2-0.897-2-2s0.897-2 2-2c1.103 0 2 0.897 2 2s-0.897 2-2 2z"></path>
</symbol>
<symbol id="icon-hammer-wrench" viewBox="0 0 20 16">
<path d="M7.696 11.009l2.295 2.295-1.823 2.341c-0.334 0.437-0.926 0.476-1.315 0.087l-1.586-1.586c-0.389-0.389-0.35-0.98 0.087-1.315l2.341-1.823zM19.899 4.101l-2.399 2.399-3-3 2.399-2.399c-0.289-0.066-0.59-0.101-0.899-0.101-2.209 0-4 1.791-4 4 0 0.797 0.233 1.539 0.635 2.163l-2.233 1.739-3.402-3.402 4.5-4.5h-5l-2.22 2.22-0.22-0.22h-1.061v1.061l0.22 0.22-3.22 3.22 2.5 2.5 3-3 9 9 1.5-1.5-3.902-3.902 1.739-2.233c0.624 0.402 1.366 0.635 2.163 0.635 2.209 0 4-1.791 4-4 0-0.309-0.035-0.61-0.101-0.899z"></path>
</symbol>
<symbol id="icon-download5" viewBox="0 0 16 16">
<path d="M2 12h12v3h-12v-3z"></path>
<path d="M10 6v-5h-4v5h-3.5l5.5 5.5 5.5-5.5z"></path>
</symbol>
<symbol id="icon-anchor" viewBox="0 0 16 16">
<path d="M14 9v2.066c-1.258 1.285-3.016 2.526-5 2.852v-5.917h3v-1l-3-1.171c1.165-0.412 2-1.523 2-2.829 0-1.657-1.343-3-3-3s-3 1.343-3 3c0 1.306 0.835 2.417 2 2.829v0l-3 1.171v1h3v5.917c-1.984-0.326-3.742-1.567-5-2.852v-2.066h-2v1c0 2 4 6 8 6s8-4 8-6v-1h-2zM9 3c0 0.552-0.448 1-1 1s-1-0.448-1-1 0.448-1 1-1c0.552 0 1 0.448 1 1z"></path>
</symbol>
<symbol id="icon-stack-check" viewBox="0 0 16 16">
<path d="M5 1v1.155l-2.619 0.368 0.17 1.211-2.551 0.732 3.308 11.535 10.189-2.921 0.558-0.079h1.945v-12h-11zM3.929 14.879l-2.808-9.793 1.558-0.447 1.373 9.766 2.997-0.421-3.119 0.894zM4.822 13.382l-1.418-10.088 1.595-0.224v9.93h2.543l-2.721 0.382zM6 12v-10h9v2.5l-0.707-0.707-4.293 3.793-2.293-1.793-0.914 0.914 3.207 3.707 5-5.48v7.066h-9z"></path>
</symbol>
<symbol id="icon-plus3" viewBox="0 0 16 16">
<path d="M15 7h-6v-6h-2v6h-6v2h6v6h2v-6h6z"></path>
</symbol>
<symbol id="icon-checkmark4" viewBox="0 0 16 16">
<path d="M15.36 1c-5.227 3.956-10.239 9.247-10.239 9.247l-3.612-3.247-1.509 1.537c1.485 1.395 4.924 5.081 6.088 6.463 3.275-5.472 6.679-9.552 9.912-13.284l-0.64-0.716z"></path>
</symbol>
<symbol id="icon-loop" viewBox="0 0 16 16">
<path d="M14 8v1c0 0.551-0.449 1-1 1h-7.002l0.002-2-4 3 4 3-0.002-2h7.002c1.655 0 3-1.348 3-3v-1h-2zM2 7c0-0.553 0.449-1 1-1h7v2l3.996-3-3.996-3v2h-7c-1.655 0-3 1.344-3 3v1h2v-1z"></path>
</symbol>
<symbol id="icon-hanger" viewBox="0 0 16 16">
<path d="M14.77 13.579l-6.77-4.352v-0.495c0.61-0.353 1-1.010 1-1.732 0-1.103-0.897-2-2-2-0.846 0-1.604 0.536-1.886 1.333-0.092 0.26 0.044 0.546 0.305 0.638s0.546-0.044 0.638-0.305c0.141-0.399 0.52-0.667 0.943-0.667 0.551 0 1 0.449 1 1 0 0.423-0.268 0.802-0.667 0.943-0.2 0.071-0.333 0.259-0.333 0.471l-0 0.812-6.77 4.352c-0.143 0.092-0.23 0.25-0.23 0.421v0.5c0 0.827 0.673 1.5 1.5 1.5h12c0.827 0 1.5-0.673 1.5-1.5v-0.5c0-0.17-0.086-0.329-0.23-0.421zM14 14.5c0 0.276-0.224 0.5-0.5 0.5h-12c-0.276 0-0.5-0.224-0.5-0.5v-0.227l6.5-4.179 6.5 4.179v0.227z"></path>
</symbol>
<symbol id="icon-search" viewBox="0 0 16 16">
<path d="M15.504 13.616l-3.79-3.223c-0.392-0.353-0.811-0.514-1.149-0.499 0.895-1.048 1.435-2.407 1.435-3.893 0-3.314-2.686-6-6-6s-6 2.686-6 6 2.686 6 6 6c1.486 0 2.845-0.54 3.893-1.435-0.016 0.338 0.146 0.757 0.499 1.149l3.223 3.79c0.552 0.613 1.453 0.665 2.003 0.115s0.498-1.452-0.115-2.003zM6 10c-2.209 0-4-1.791-4-4s1.791-4 4-4 4 1.791 4 4-1.791 4-4 4z"></path>
</symbol>
<symbol id="icon-cog" viewBox="0 0 16 16">
<path d="M14.59 9.535c-0.839-1.454-0.335-3.317 1.127-4.164l-1.572-2.723c-0.449 0.263-0.972 0.414-1.529 0.414-1.68 0-3.042-1.371-3.042-3.062h-3.145c0.004 0.522-0.126 1.051-0.406 1.535-0.839 1.454-2.706 1.948-4.17 1.106l-1.572 2.723c0.453 0.257 0.845 0.634 1.123 1.117 0.838 1.452 0.336 3.311-1.12 4.16l1.572 2.723c0.448-0.261 0.967-0.41 1.522-0.41 1.675 0 3.033 1.362 3.042 3.046h3.145c-0.001-0.517 0.129-1.040 0.406-1.519 0.838-1.452 2.7-1.947 4.163-1.11l1.572-2.723c-0.45-0.257-0.839-0.633-1.116-1.113zM8 11.24c-1.789 0-3.24-1.45-3.24-3.24s1.45-3.24 3.24-3.24c1.789 0 3.24 1.45 3.24 3.24s-1.45 3.24-3.24 3.24z"></path>
</symbol>
<symbol id="icon-menu" viewBox="0 0 16 16">
<path d="M1 3h14v2h-14v-2z"></path>
<path d="M1 7h14v2h-14v-2z"></path>
<path d="M1 11h14v2h-14v-2z"></path>
</symbol>
<symbol id="icon-warning2" viewBox="0 0 16 16">
<path d="M15.781 14.309v0l-6.829-13.611c-0.262-0.465-0.606-0.698-0.951-0.698s-0.69 0.233-0.951 0.698l-6.829 13.611c-0.523 0.93-0.078 1.691 0.989 1.691h13.583c1.067 0 1.512-0.761 0.989-1.691zM8 14c-0.552 0-1-0.448-1-1s0.448-1 1-1c0.552 0 1 0.448 1 1s-0.448 1-1 1zM9 10c0 0.552-0.448 1-1 1s-1-0.448-1-1v-3c0-0.552 0.448-1 1-1s1 0.448 1 1v3z"></path>
</symbol>
<symbol id="icon-question6" viewBox="0 0 16 16">
<path d="M8 13c-0.552 0-1-0.448-1-1v-1.027c0-1.41 1.124-2.477 2.212-3.509 0.879-0.834 1.788-1.697 1.788-2.464 0-1.493-1.082-3-3.5-3-1.787 0-3.283 1.337-3.479 3.11-0.061 0.549-0.555 0.945-1.104 0.884s-0.945-0.555-0.884-1.104c0.148-1.338 0.782-2.572 1.785-3.477 1.011-0.911 2.319-1.413 3.681-1.413 1.475 0 2.834 0.463 3.828 1.305 1.078 0.913 1.672 2.225 1.672 3.695 0 1.626-1.281 2.842-2.411 3.915-0.745 0.707-1.589 1.508-1.589 2.058l0 1.027c0 0.552-0.448 1-1 1z"></path>
<path d="M9 15c0 0.552-0.448 1-1 1s-1-0.448-1-1c0-0.552 0.448-1 1-1s1 0.448 1 1z"></path>
</symbol>
<symbol id="icon-cross" viewBox="0 0 16 16">
<path d="M13.957 3.457l-1.414-1.414-4.543 4.543-4.543-4.543-1.414 1.414 4.543 4.543-4.543 4.543 1.414 1.414 4.543-4.543 4.543 4.543 1.414-1.414-4.543-4.543z"></path>
</symbol>
<symbol id="icon-arrow-up3" viewBox="0 0 16 16">
<path d="M0 10.5l1.5 1.5 6.5-6.5 6.5 6.5 1.5-1.5-8-8-8 8z"></path>
</symbol>
<symbol id="icon-arrow-right3" viewBox="0 0 16 16">
<path d="M5.5 0l-1.5 1.5 6.5 6.5-6.5 6.5 1.5 1.5 8-8-8-8z"></path>
</symbol>
<symbol id="icon-arrow-down3" viewBox="0 0 16 16">
<path d="M16 5.5l-1.5-1.5-6.5 6.5-6.5-6.5-1.5 1.5 8 8 8-8z"></path>
</symbol>
<symbol id="icon-arrow-left3" viewBox="0 0 16 16">
<path d="M10.5 16l1.5-1.5-6.5-6.5 6.5-6.5-1.5-1.5-8 8 8 8z"></path>
</symbol>
<symbol id="icon-sort-amount-desc" viewBox="0 0 16 16">
<path d="M5 12v-12h-2v12h-2.5l3.5 3.5 3.5-3.5h-2.5z"></path>
<path d="M7 0h9v2h-9v-2z"></path>
<path d="M7 3h7v2h-7v-2z"></path>
<path d="M7 6h5v2h-5v-2z"></path>
<path d="M7 9h3v2h-3v-2z"></path>
</symbol>
<symbol id="icon-checkbox-checked" viewBox="0 0 16 16">
<path d="M14 0h-12c-1.1 0-2 0.9-2 2v12c0 1.1 0.9 2 2 2h12c1.1 0 2-0.9 2-2v-12c0-1.1-0.9-2-2-2zM7 12.414l-3.707-3.707 1.414-1.414 2.293 2.293 4.793-4.793 1.414 1.414-6.207 6.207z"></path>
</symbol>
<symbol id="icon-paragraph-left" viewBox="0 0 16 16">
<path d="M0 1h16v2h-16zM0 5h10v2h-10zM0 13h10v2h-10zM0 9h16v2h-16z"></path>
</symbol>
<symbol id="icon-share3" viewBox="0 0 16 16">
<path d="M13.5 11c-0.706 0-1.342 0.293-1.797 0.763l-6.734-3.367c0.021-0.129 0.032-0.261 0.032-0.396s-0.011-0.267-0.032-0.396l6.734-3.367c0.455 0.47 1.091 0.763 1.797 0.763 1.381 0 2.5-1.119 2.5-2.5s-1.119-2.5-2.5-2.5-2.5 1.119-2.5 2.5c0 0.135 0.011 0.267 0.031 0.396l-6.734 3.367c-0.455-0.47-1.091-0.763-1.797-0.763-1.381 0-2.5 1.119-2.5 2.5s1.119 2.5 2.5 2.5c0.706 0 1.343-0.293 1.797-0.763l6.734 3.367c-0.021 0.129-0.031 0.261-0.031 0.396 0 1.381 1.119 2.5 2.5 2.5s2.5-1.119 2.5-2.5c0-1.381-1.119-2.5-2.5-2.5z"></path>
</symbol>
</defs>
</svg>
